<mxfile host="app.diagrams.net" modified="2023-06-12T04:45:20.508Z" agent="Mozilla/5.0 (Windows NT 10.0; Win64; x64) AppleWebKit/537.36 (KHTML, like Gecko) Chrome/115.0.0.0 Safari/537.36 Edg/115.0.0.0" version="21.3.8" etag="Ud4pElYTr9qsXHYt2fg1" type="github">
  <diagram name="第 1 页" id="6BPmqwqBvvCCMmxsLVRf">
    <mxGraphModel>
      <root>
        <mxCell id="0" />
        <mxCell id="1" parent="0" />
      </root>
    </mxGraphModel>
  </diagram>
</mxfile>
